<svg width="400" height="230" viewBox="0 0 400 230" fill="none" xmlns="http://www.w3.org/2000/svg">
<path d="M285.354 229.272C222.143 229.272 170.735 177.864 170.735 114.653V111.583C170.735 77.3338 146.276 55.1946 108.445 55.1946C70.6136 55.1946 42.8116 84.634 42.8116 120.828C42.8116 157.021 72.251 186.461 108.445 186.461C120.214 186.461 131.778 183.322 141.841 177.353L163.639 214.195C146.958 224.053 127.889 229.272 108.445 229.272C48.6449 229.272 0 180.628 0 120.828C0 61.0279 48.6449 12.383 108.445 12.383C168.245 12.383 213.546 53.1819 213.546 111.583V114.653C213.546 154.258 245.749 186.461 285.354 186.461C324.959 186.461 357.162 154.258 357.162 114.653C357.162 75.0483 324.959 42.8457 285.354 42.8457C272.459 42.8457 259.838 46.2911 248.819 52.8067L226.987 15.9648C244.589 5.52628 264.784 0 285.32 0C348.531 0 399.939 51.4081 399.939 114.619C399.939 177.83 348.531 229.238 285.32 229.238L285.354 229.272Z" fill="#2D7AFF"/>
</svg>
